<?xml version="1.0" standalone="no"?>
<!DOCTYPE svg PUBLIC "-//W3C//DTD SVG 20010904//EN"
 "http://www.w3.org/TR/2001/REC-SVG-20010904/DTD/svg10.dtd">
<svg version="1.0" xmlns="http://www.w3.org/2000/svg"
 width="443.000000pt" height="312.000000pt" viewBox="0 0 443.000000 312.000000"
 preserveAspectRatio="xMidYMid meet">

<g transform="translate(0.000000,312.000000) scale(0.100000,-0.100000)"
fill="#000000" stroke="none">
<path d="M1293 2905 c-38 -26 -39 -75 -5 -148 17 -35 42 -120 57 -188 14 -68
35 -153 45 -189 26 -84 50 -310 50 -458 0 -124 -31 -293 -66 -368 -19 -40
-115 -149 -147 -165 -34 -19 -82 -12 -143 19 -230 119 -328 290 -555 972 -26
80 -53 163 -58 186 -25 94 -86 141 -151 114 -80 -33 -85 -139 -17 -370 197
-668 343 -921 607 -1052 52 -26 120 -54 150 -61 l54 -14 -3 -41 c-1 -23 11
-94 28 -159 16 -65 48 -206 71 -313 117 -555 120 -564 180 -595 37 -19 63 -19
100 0 70 36 76 115 25 343 -19 86 -51 231 -70 322 -39 178 -86 359 -113 429
l-17 43 91 92 c116 116 152 187 189 367 30 150 33 284 10 500 -17 164 -20 181
-45 264 -10 33 -30 116 -45 185 -50 233 -137 344 -222 285z"/>
<path d="M2475 2873 c-69 -17 -138 -121 -171 -261 -13 -53 -24 -107 -24 -119
0 -39 -15 -25 -44 43 -49 113 -86 143 -144 118 -22 -9 -38 -28 -58 -71 l-28
-59 -22 25 c-31 36 -88 35 -120 -3 -40 -46 -35 -111 35 -423 26 -116 68 -352
82 -463 11 -95 37 -163 67 -179 34 -18 79 -13 109 13 27 23 28 28 26 108 -1
94 -40 337 -83 530 -32 141 -36 192 -19 284 9 51 29 98 29 69 0 -27 181 -909
190 -925 25 -48 86 -52 132 -11 31 28 33 33 31 93 -1 59 -38 243 -85 423 -18
70 -20 99 -15 230 7 166 41 359 75 414 l20 32 31 -66 c17 -37 35 -83 41 -103
52 -192 127 -522 165 -722 25 -135 68 -353 96 -485 51 -250 83 -421 99 -540
17 -129 57 -303 79 -344 6 -11 27 -25 46 -31 41 -14 77 0 108 42 l20 27 -27
158 c-15 87 -36 212 -47 278 -11 66 -34 190 -51 275 l-31 155 50 125 c28 69
58 150 67 180 10 30 22 67 28 82 10 28 10 28 37 10 39 -27 235 -102 265 -102
54 0 93 70 66 119 -5 10 -61 44 -123 75 -104 51 -125 66 -236 172 -77 74 -141
146 -175 198 -30 44 -80 117 -111 161 -31 44 -75 112 -97 150 -145 249 -163
277 -192 294 -38 23 -65 30 -91 24z m585 -1048 c-10 -11 -25 -45 -34 -75 -28
-96 -74 -206 -80 -190 -3 8 -12 56 -21 105 -9 50 -32 159 -51 244 -19 85 -34
157 -34 161 0 3 54 -46 119 -109 117 -114 119 -116 101 -136z"/>
<path d="M1690 1580 c-42 -42 -8 -120 51 -120 32 0 69 38 69 71 0 59 -78 91
-120 49z"/>
<path d="M3585 1489 c-216 -40 -209 -37 -213 -77 -3 -29 1 -35 26 -44 29 -11
30 -15 46 -117 33 -213 85 -468 122 -597 5 -19 0 -22 -42 -28 -55 -7 -74 -20
-74 -51 0 -12 6 -28 14 -34 24 -20 99 -23 176 -6 41 9 112 24 156 33 86 19
114 34 114 62 0 33 -36 53 -84 47 l-45 -7 -6 38 c-6 39 -26 139 -94 481 -22
112 -38 207 -35 212 3 5 22 9 43 9 42 0 61 14 61 45 0 12 -5 26 -12 33 -14 14
-80 14 -153 1z"/>
<path d="M1932 1420 c-37 -35 -23 -96 25 -111 21 -7 116 -134 157 -210 37 -68
40 -79 44 -173 7 -149 -22 -200 -117 -213 -31 -4 -54 1 -107 26 -54 25 -87 52
-170 138 -93 96 -107 107 -139 107 -22 0 -43 -8 -59 -23 -56 -53 -39 -109 66
-218 173 -177 348 -234 495 -160 91 47 138 100 157 180 l6 27 93 0 c110 0 153
17 227 86 101 95 95 222 -17 325 -66 62 -105 81 -178 86 -55 5 -67 1 -137 -34
l-77 -39 -46 67 c-67 98 -140 159 -189 159 -7 0 -22 -9 -34 -20z m544 -275
c57 -33 84 -73 84 -124 0 -36 -5 -44 -46 -75 -59 -46 -92 -52 -159 -30 -49 15
-73 34 -44 34 6 0 40 14 75 31 69 33 99 66 89 98 -10 32 -41 35 -98 7 -28 -14
-64 -28 -79 -32 -24 -5 -28 -3 -28 14 0 25 105 102 139 102 13 0 43 -11 67
-25z"/>
<path d="M1455 1235 c-48 -47 -22 -115 45 -115 43 0 70 26 70 68 0 29 -42 72
-70 72 -11 0 -32 -11 -45 -25z"/>
</g>
</svg>
