<?xml version="1.0" standalone="no"?>
<!DOCTYPE svg PUBLIC "-//W3C//DTD SVG 20010904//EN"
 "http://www.w3.org/TR/2001/REC-SVG-20010904/DTD/svg10.dtd">
<svg version="1.0" xmlns="http://www.w3.org/2000/svg"
 width="194.000000pt" height="193.000000pt" viewBox="0 0 194.000000 193.000000"
 preserveAspectRatio="xMidYMid meet">

<g transform="translate(0.000000,193.000000) scale(0.100000,-0.100000)"
fill="#000000" stroke="none">
<path d="M885 1736 c-61 -28 -105 -94 -105 -160 0 -85 -78 -112 -152 -53 -37
29 -46 32 -112 32 -65 0 -77 -3 -110 -29 -84 -64 -96 -167 -31 -262 40 -58 43
-81 15 -116 -14 -19 -32 -27 -71 -31 -100 -12 -169 -86 -169 -182 0 -49 25
-108 58 -138 26 -24 88 -46 130 -47 18 0 40 -8 52 -20 24 -24 27 -82 4 -101
-61 -50 -71 -176 -20 -244 32 -42 95 -74 144 -75 41 0 95 22 134 55 61 51 115
22 134 -74 7 -34 22 -75 34 -91 54 -75 180 -93 255 -36 43 33 74 95 75 149 0
48 28 77 74 77 18 0 39 -7 47 -16 7 -8 31 -25 53 -36 51 -26 143 -22 184 9 85
63 106 174 47 254 -44 61 -49 75 -36 108 13 31 42 46 105 55 122 17 186 161
121 272 -29 49 -91 84 -149 84 -72 0 -116 89 -67 134 50 45 68 153 37 214 -20
39 -67 77 -112 92 -53 18 -109 6 -169 -34 -28 -20 -60 -36 -71 -36 -40 1 -74
47 -74 100 0 47 -39 108 -86 136 -47 27 -120 32 -169 10z m136 -94 c26 -23 33
-39 40 -85 12 -95 69 -147 159 -147 45 0 70 10 113 46 20 17 41 24 72 24 36 0
48 -5 69 -31 35 -41 34 -85 -3 -129 -97 -119 -34 -280 110 -280 33 0 47 -6 75
-34 43 -43 45 -83 6 -127 -23 -26 -39 -33 -85 -40 -31 -4 -69 -17 -85 -28 -64
-45 -82 -151 -37 -212 60 -82 64 -131 13 -174 -38 -32 -76 -32 -119 0 -81 59
-127 67 -195 34 -53 -25 -80 -67 -92 -142 -10 -66 -32 -94 -77 -103 -66 -12
-106 29 -119 121 -10 71 -66 124 -139 132 -60 7 -86 0 -132 -37 -100 -79 -225
19 -151 120 43 59 59 101 53 146 -9 81 -64 130 -160 141 -85 10 -126 71 -93
139 18 38 39 50 108 59 83 11 138 75 138 160 0 50 -9 74 -46 118 -76 91 32
212 126 143 61 -45 100 -59 150 -52 80 11 129 64 141 153 14 103 93 145 160
85z"/>
<path d="M871 1176 c-91 -33 -161 -135 -161 -236 1 -172 164 -288 334 -238 55
16 138 99 154 154 19 63 15 141 -9 191 -26 54 -96 116 -147 131 -49 15 -127
14 -171 -2z m141 -76 c21 -6 51 -27 71 -50 63 -68 62 -158 -2 -221 -72 -72
-168 -74 -237 -5 -84 84 -59 217 50 267 47 21 67 23 118 9z"/>
</g>
</svg>
